<?xml version="1.0" encoding="UTF-8" standalone="no"?>
<!DOCTYPE svg PUBLIC "-//W3C//DTD SVG 20010904//EN" "http://www.w3.org/TR/2001/REC-SVG-20010904/DTD/svg10.dtd">
<svg version="1.0" xmlns="http://www.w3.org/2000/svg" width="1280.000000pt" height="640.000000pt" viewBox="0 0 1280.000000 640.000000" preserveAspectRatio="xMidYMid meet">
<g transform="translate(0.000000,640.000000) scale(0.100000,-0.100000)" fill="#000000" stroke="none">
<path d="M1316 4853 c-11 -11 -6 -23 9 -23 8 0 15 4 15 9 0 13 -16 22 -24 14z"/>
<path d="M11466 4853 c-11 -11 -6 -23 9 -23 8 0 15 4 15 9 0 13 -16 22 -24 14z"/>
<path d="M1070 4818 c0 -20 -39 -54 -83 -73 -31 -13 -44 -14 -78 -4 -28 9 -43 9 -50 2 -8 -8 -5 -13 10 -18 25 -8 27 -21 4 -33 -11 -7 -32 -5 -62 4 -25 8 -49 14 -53 14 -5 0 -8 -33 -8 -74 0 -56 -4 -77 -16 -87 -14 -12 -21 -8 -49 25 -29 35 -36 38 -66 32 -60 -11 -200 -97 -267 -164 -63 -63 -63 -63 -146 -77 -80 -13 -186 -55 -186 -75 0 -15 33 -12 58 6 19 13 31 14 75 5 82 -17 278 -31 447 -31 132 0 178 -5 310 -31 314 -61 442 -71 572 -43 56 12 103 14 204 9 123 -6 132 -5 157 15 15 12 27 30 27 40 0 10 4 21 9 25 12 7 86 -18 178 -60 67 -31 72 -32 76 -14 8 28 34 25 305 -36 133 -30 281 -59 330 -66 83 -11 226 -45 284 -68 15 -6 58 -31 94 -55 54 -36 71 -43 86 -35 33 18 58 2 58 -36 0 -23 6 -37 18 -43 17 -10 356 -112 369 -112 4 0 2 5 -5 12 -49 49 53 41 282 -22 158 -44 159 -44 79 -6 -62 29 -73 39 -73 60 0 28 -33 56 -65 56 -44 0 -141 32 -165 55 -14 13 -43 26 -65 30 -63 11 -75 15 -75 31 0 52 291 -40 510 -162 119 -66 142 -75 120 -49 -15 18 -9 27 20 29 39 2 24 21 -38 46 -67 27 -79 43 -36 48 23 3 272 -32 317 -44 9 -3 17 -1 17 4 0 10 -77 34 -189 60 -90 21 -106 42 -31 42 56 0 60 14 7 23 -18 3 -50 16 -71 30 -44 31 -159 59 -207 51 -23 -4 -50 1 -82 15 -61 26 -71 26 -57 0 16 -29 6 -49 -22 -42 -54 12 -255 76 -280 89 -36 19 -35 31 5 48 l32 14 -61 1 c-81 1 -227 39 -372 96 -129 52 -192 88 -192 110 0 25 -34 17 -63 -16 -25 -29 -31 -31 -70 -26 -59 8 -140 44 -134 60 4 13 37 14 80 2 22 -6 26 -4 21 8 -3 8 5 25 18 37 l23 23 -71 -6 c-50 -4 -84 -1 -115 10 -32 11 -74 14 -154 11 -93 -2 -110 -1 -110 12 0 11 28 21 110 36 135 27 102 29 -160 13 -180 -11 -264 -6 -272 18 -2 6 25 21 64 34 84 28 64 34 -72 20 -151 -15 -205 11 -104 52 l44 18 -80 -6 c-44 -2 -101 -8 -127 -11 -39 -5 -48 -4 -48 8 0 19 -41 28 -119 28 -48 0 -64 -5 -97 -30 -38 -29 -41 -30 -120 -24 -67 5 -95 3 -150 -14 -97 -29 -170 -38 -189 -22 -21 18 -9 30 74 69 56 28 68 37 61 50 -5 10 -3 28 5 47 l13 32 -56 -2 c-32 0 -69 3 -84 8 -22 6 -28 5 -28 -6z m2502 -882 c87 -32 208 -94 208 -106 0 -19 -48 -10 -166 31 -119 41 -154 60 -154 86 0 20 42 16 112 -11z"/>
<path d="M11680 4819 c-14 -6 -46 -8 -72 -4 l-47 6 13 -33 c9 -20 11 -39 6 -49 -7 -13 5 -22 61 -50 83 -39 95 -51 74 -69 -19 -16 -92 -7 -189 22 -55 17 -83 19 -150 14 -79 -6 -82 -5 -120 24 -33 25 -49 30 -97 30 -78 0 -119 -9 -119 -28 0 -12 -9 -13 -47 -8 -27 3 -84 9 -128 11 l-80 6 44 -18 c101 -41 47 -67 -104 -52 -136 14 -156 8 -72 -20 137 -46 49 -68 -208 -52 -262 16 -295 14 -160 -13 82 -15 110 -25 110 -36 0 -13 -17 -14 -110 -12 -80 3 -122 0 -154 -11 -31 -11 -65 -14 -115 -10 l-71 6 23 -23 c13 -12 21 -29 18 -37 -5 -12 -1 -14 21 -8 43 12 76 11 80 -2 6 -16 -75 -52 -134 -60 -39 -5 -45 -3 -70 26 -29 33 -63 41 -63 16 0 -22 -63 -58 -192 -110 -145 -57 -291 -95 -372 -96 l-61 -1 33 -14 c39 -17 40 -29 5 -48 -26 -13 -227 -77 -281 -89 -28 -7 -38 13 -22 42 14 26 4 26 -57 0 -32 -14 -59 -19 -82 -15 -48 8 -163 -20 -207 -51 -21 -14 -53 -27 -71 -30 -53 -9 -49 -23 7 -23 75 0 59 -21 -31 -42 -112 -26 -189 -50 -189 -60 0 -5 8 -7 18 -4 44 12 293 47 316 44 45 -5 34 -20 -34 -47 -64 -26 -80 -45 -40 -47 29 -2 35 -11 20 -29 -22 -26 1 -17 120 49 219 122 510 214 510 162 0 -16 -12 -20 -75 -31 -22 -4 -51 -17 -65 -30 -24 -23 -121 -55 -165 -55 -32 0 -65 -28 -65 -56 0 -21 -11 -31 -72 -60 -81 -38 -80 -38 78 6 229 63 331 71 282 22 -7 -7 -9 -12 -5 -12 13 0 352 102 370 112 11 6 17 20 17 43 0 38 25 54 58 36 15 -8 32 -1 86 35 36 24 79 49 94 55 58 23 201 57 284 68 49 7 197 36 330 66 271 61 297 64 305 36 4 -18 9 -17 76 14 92 42 166 67 178 60 5 -4 9 -15 9 -25 0 -10 12 -28 27 -40 25 -20 34 -21 157 -15 101 5 148 3 204 -9 130 -28 258 -18 572 43 132 26 178 31 310 31 169 0 365 14 447 31 44 9 56 8 75 -5 25 -18 58 -21 58 -6 0 20 -106 62 -186 75 -83 14 -83 14 -146 77 -67 67 -207 153 -267 164 -30 6 -37 3 -66 -32 -28 -33 -35 -37 -49 -25 -12 10 -16 31 -16 87 0 41 -3 74 -7 74 -5 0 -29 -6 -54 -14 -30 -9 -51 -11 -62 -4 -23 12 -21 25 4 33 15 5 18 10 10 18 -7 7 -22 7 -50 -2 -34 -10 -47 -9 -78 4 -43 18 -83 52 -83 72 0 15 -15 16 -50 2z m-2340 -872 c0 -26 -35 -45 -154 -86 -118 -41 -166 -50 -166 -31 0 5 33 26 73 46 145 74 247 103 247 71z"/>
<path d="M1516 4774 c-4 -11 -1 -14 11 -12 9 2 18 9 21 16 6 18 -25 15 -32 -4z"/>
<path d="M11252 4778 c3 -7 12 -14 21 -16 12 -2 15 1 11 12 -7 19 -38 22 -32 4z"/>
<path d="M2602 4088 c7 -19 74 -49 120 -55 34 -3 39 -2 26 7 -36 22 -150 60 -146 48z"/>
<path d="M10115 4067 c-49 -19 -73 -33 -61 -35 26 -6 96 16 126 38 41 31 19 30 -65 -3z"/>
<path d="M4330 3815 c0 -3 34 -21 76 -40 42 -19 89 -46 105 -60 29 -23 31 -24 55 -9 13 9 24 18 24 19 0 2 -30 13 -67 26 -38 12 -92 33 -121 46 -52 23 -72 28 -72 18z"/>
<path d="M8345 3778 c-55 -22 -108 -43 -117 -47 -14 -5 -14 -8 7 -23 23 -17 25 -17 53 7 17 14 64 41 106 60 72 33 91 46 64 44 -7 -1 -58 -19 -113 -41z"/>
<path d="M1595 3645 c-65 -8 -142 -22 -171 -30 -29 -8 -68 -15 -88 -15 -74 0 -290 -72 -378 -125 -31 -19 -63 -35 -71 -35 -22 0 -105 -77 -133 -126 -33 -56 -30 -100 6 -96 14 1 39 2 55 3 17 0 40 7 53 15 12 8 27 12 33 8 30 -18 -31 -186 -73 -203 -13 -5 -34 -12 -48 -15 -14 -3 -32 -10 -40 -16 -13 -9 -13 -12 4 -25 24 -18 14 -45 -17 -45 -14 0 -36 -10 -51 -21 -23 -18 -36 -21 -84 -16 l-57 6 80 -40 c44 -23 88 -48 97 -56 25 -22 8 -48 -53 -79 -85 -43 -47 -38 52 7 59 27 94 38 97 30 5 -16 30 -14 90 9 29 11 63 20 77 20 21 0 25 -5 25 -28 0 -29 -17 -59 -58 -104 l-24 -26 22 -12 c36 -19 22 -53 -30 -70 l-45 -15 64 -5 c37 -3 66 -10 68 -17 2 -6 -10 -22 -26 -34 -17 -13 -31 -26 -31 -30 0 -4 33 -10 73 -14 130 -12 262 -36 276 -50 19 -19 6 -49 -17 -40 -9 4 -29 10 -44 12 -20 4 -26 1 -25 -13 1 -11 -16 -28 -50 -48 -29 -16 -51 -31 -49 -33 2 -2 32 7 67 20 72 27 102 23 120 -17 12 -26 7 -56 -10 -56 -5 0 -13 9 -16 20 -7 23 -42 27 -69 7 -16 -12 -16 -14 -2 -26 8 -7 13 -18 10 -24 -3 -9 41 -12 180 -10 147 1 187 -1 196 -12 28 -34 -94 -63 -175 -42 -28 7 -31 5 -42 -23 -12 -33 -49 -42 -55 -14 -2 11 -11 3 -30 -25 l-27 -41 27 6 c15 3 79 19 142 35 132 32 201 40 207 22 2 -6 -13 -21 -34 -32 -49 -26 -37 -26 48 0 l69 21 117 -42 c199 -72 227 -91 198 -137 -10 -16 -12 -22 -4 -15 20 18 49 15 49 -6 0 -23 -40 -62 -63 -62 -24 0 -32 26 -16 46 8 9 -19 0 -60 -20 -77 -39 -88 -54 -25 -37 44 12 54 8 54 -25 0 -47 53 -17 101 58 47 73 63 80 135 67 67 -14 84 -24 84 -51 0 -54 -58 -103 -74 -63 -3 8 -10 15 -16 15 -16 0 -90 -71 -90 -86 0 -20 10 -17 37 7 23 22 65 29 94 15 12 -5 19 1 28 22 26 63 106 112 178 112 46 -1 135 -30 140 -47 6 -18 -106 -93 -140 -93 -28 0 -116 -47 -117 -62 0 -16 34 -7 56 13 28 27 45 17 37 -21 -7 -35 1 -37 42 -10 37 25 62 26 67 3 3 -14 22 0 81 59 85 85 113 98 215 98 66 0 68 -2 51 -47 -19 -50 -12 -213 10 -213 4 0 24 24 45 54 43 62 60 72 90 53 33 -22 142 -28 158 -10 8 11 23 13 52 9 27 -4 51 -1 70 9 38 20 45 19 58 -10 15 -33 25 -32 33 5 7 33 53 77 91 86 13 3 39 3 57 0 27 -5 38 -2 57 19 13 14 32 25 42 25 15 0 17 3 8 19 -13 25 -13 27 6 45 10 10 34 16 67 16 29 1 63 7 77 15 29 17 76 19 85 5 13 -20 45 -10 56 18 15 39 49 72 74 72 12 0 42 13 66 30 38 26 50 29 87 24 30 -5 66 0 122 17 65 18 86 21 114 12 70 -22 186 42 257 140 16 22 29 46 29 53 0 8 -18 23 -40 34 -26 13 -53 40 -77 75 -20 31 -51 64 -69 76 -18 11 -56 47 -85 80 -28 33 -100 101 -158 151 -125 107 -141 124 -141 150 0 18 5 20 48 16 48 -5 115 -33 203 -85 l46 -27 57 17 c31 10 56 20 56 22 0 22 -31 60 -60 75 -20 10 -84 55 -144 99 -307 232 -654 431 -869 500 -237 76 -473 125 -726 151 -509 53 -920 70 -1126 45z m317 -532 c12 -14 16 -42 15 -128 0 -94 3 -121 27 -190 42 -124 97 -208 204 -312 102 -99 149 -127 337 -199 93 -36 107 -39 200 -38 338 3 520 126 764 517 40 64 81 119 92 122 23 8 128 -39 181 -81 20 -16 50 -37 67 -46 26 -14 31 -23 31 -53 0 -28 8 -43 40 -75 74 -74 68 -111 -34 -218 -87 -90 -143 -126 -311 -199 -237 -101 -408 -143 -677 -164 -224 -17 -451 -8 -566 25 -141 39 -296 101 -398 157 -156 86 -395 277 -475 378 -19 24 -49 62 -67 84 -33 40 -34 43 -30 118 3 82 18 113 69 151 29 22 454 167 490 168 14 0 33 -8 41 -17z m524 -98 c48 -52 144 -247 143 -293 0 -45 -40 -152 -61 -165 -11 -7 -34 2 -89 38 -142 91 -222 173 -222 224 0 31 68 153 112 199 40 43 74 42 117 -3z m1194 -1090 c10 -12 10 -18 0 -30 -25 -30 -61 -7 -46 30 3 8 12 15 19 15 8 0 20 -7 27 -15z m-552 -127 c4 -20 -34 -61 -51 -55 -20 6 -20 37 -1 58 21 23 47 21 52 -3z"/>
<path d="M10745 3653 c-309 -14 -808 -63 -955 -93 -144 -29 -320 -74 -437 -111 -215 -69 -562 -268 -869 -500 -60 -44 -124 -89 -144 -99 -29 -15 -60 -53 -60 -75 0 -2 25 -12 56 -22 l57 -17 46 27 c127 76 240 109 254 75 7 -19 -20 -50 -113 -129 -126 -107 -190 -172 -190 -194 0 -105 128 -293 300 -442 41 -36 89 -71 105 -78 37 -16 60 -40 74 -78 11 -27 43 -37 56 -17 9 14 56 12 85 -5 14 -8 48 -14 77 -15 33 0 57 -6 67 -16 19 -18 19 -20 6 -45 -9 -16 -7 -19 8 -19 10 0 29 -11 42 -25 19 -21 30 -24 57 -19 18 3 44 3 57 0 38 -9 84 -53 91 -86 8 -37 18 -38 33 -5 13 29 20 30 58 10 19 -10 43 -13 70 -9 29 4 44 2 52 -9 16 -18 125 -12 158 10 30 19 47 9 90 -53 41 -59 51 -65 58 -31 16 76 14 126 -9 210 l-7 27 63 0 c103 0 130 -12 216 -98 59 -59 78 -73 81 -59 5 23 30 22 67 -3 41 -27 49 -25 42 10 -8 38 9 48 37 21 22 -20 56 -29 56 -13 -1 15 -89 62 -117 62 -34 0 -146 75 -140 93 5 17 94 46 140 47 72 0 152 -49 178 -112 9 -21 16 -27 28 -22 29 14 71 7 94 -15 27 -24 37 -27 37 -7 0 15 -74 86 -90 86 -6 0 -13 -7 -16 -15 -16 -40 -74 9 -74 63 0 27 17 37 84 51 72 13 88 6 135 -67 48 -75 101 -105 101 -58 0 33 10 37 54 25 63 -17 52 -2 -25 37 -41 20 -68 29 -60 20 17 -20 7 -46 -17 -46 -23 0 -62 40 -62 63 0 20 30 23 49 5 8 -7 6 -1 -4 15 -29 46 -1 65 198 137 l117 42 69 -21 c85 -26 97 -26 48 0 -21 11 -36 26 -34 32 6 18 75 10 207 -22 63 -16 127 -32 142 -35 l27 -6 -27 41 c-19 28 -28 36 -30 25 -6 -28 -43 -19 -55 14 -11 28 -14 30 -42 23 -81 -21 -203 8 -175 42 9 11 49 13 196 12 139 -2 183 1 180 10 -3 6 2 17 10 24 14 12 14 14 -2 26 -27 20 -62 16 -69 -7 -3 -11 -11 -20 -16 -20 -17 0 -22 30 -10 56 18 40 48 44 120 17 35 -13 65 -22 67 -20 2 2 -20 17 -49 33 -34 20 -51 37 -50 48 1 14 -5 17 -25 13 -15 -2 -35 -8 -44 -12 -12 -5 -20 -2 -24 9 -15 39 33 54 241 76 131 14 135 16 94 43 -53 36 -45 51 31 57 l65 5 -45 15 c-52 17 -66 51 -30 70 l22 12 -24 26 c-41 45 -58 75 -58 104 0 23 4 28 25 28 14 0 48 -9 77 -20 60 -23 85 -25 90 -9 3 8 38 -3 97 -30 99 -45 137 -50 52 -7 -61 31 -78 57 -53 79 9 8 53 33 97 56 l80 40 -57 -6 c-48 -5 -61 -2 -84 16 -15 11 -37 21 -51 21 -31 0 -41 27 -17 45 17 13 17 16 4 25 -8 6 -26 13 -40 16 -14 3 -35 10 -48 15 -42 17 -103 185 -73 203 6 4 21 0 33 -8 13 -8 37 -15 53 -15 17 -1 41 -2 55 -3 36 -4 39 40 6 96 -28 49 -111 126 -133 126 -8 0 -40 16 -71 35 -89 54 -304 125 -379 125 -21 0 -60 7 -86 15 -111 33 -386 50 -632 38z m444 -604 c133 -45 225 -82 244 -98 41 -34 57 -78 57 -155 0 -58 -3 -68 -32 -104 -18 -22 -48 -59 -67 -83 -80 -101 -319 -292 -475 -378 -102 -56 -257 -118 -398 -157 -77 -22 -121 -27 -256 -31 -172 -6 -400 8 -544 33 -166 28 -416 115 -583 202 -112 59 -255 204 -255 260 0 35 68 160 110 201 79 79 221 158 259 146 11 -3 52 -58 92 -122 244 -391 426 -514 764 -517 93 -1 107 2 200 38 188 72 235 100 337 199 107 104 162 188 204 312 24 69 27 96 27 190 -1 130 9 150 67 142 19 -2 131 -37 249 -78z m-1402 -118 c36 -23 94 -121 117 -200 22 -74 22 -224 0 -245 -22 -23 -59 -20 -117 9 -82 42 -121 79 -173 167 -42 72 -49 91 -52 148 -3 52 0 70 15 88 39 49 154 67 210 33z m-569 -1019 c4 -28 -24 -40 -45 -19 -14 13 -14 19 -3 32 18 22 44 15 48 -13z m554 -109 c19 -17 24 -48 8 -58 -14 -9 -48 12 -55 35 -12 39 15 52 47 23z"/>
<path d="M1057 2374 c-34 -18 -30 -28 6 -19 30 8 58 35 36 35 -8 -1 -27 -8 -42 -16z"/>
<path d="M11699 2376 c12 -15 60 -30 68 -22 6 6 -51 36 -68 36 -9 0 -9 -3 0 -14z"/>
<path d="M1715 1998 c-19 -11 -18 -12 10 -20 19 -5 32 -3 36 4 17 27 -11 36 -46 16z"/>
<path d="M11036 2002 c-11 -18 10 -31 39 -23 29 7 30 8 8 19 -25 14 -40 15 -47 4z"/>
<path d="M1560 1950 c-13 -8 -13 -10 2 -10 9 0 20 5 23 10 8 13 -5 13 -25 0z"/>
<path d="M11215 1950 c3 -5 14 -10 23 -10 15 0 15 2 2 10 -20 13 -33 13 -25 0z"/>
<path d="M1723 1854 c-19 -20 -32 -38 -30 -40 2 -2 32 11 66 30 46 24 58 35 46 40 -32 12 -48 6 -82 -30z"/>
<path d="M10991 1883 c-8 -3 12 -19 50 -39 34 -19 64 -32 66 -30 2 2 -11 20 -30 40 -32 34 -54 41 -86 29z"/>
<path d="M3660 1781 c0 -5 5 -13 10 -16 6 -3 10 -2 10 4 0 5 -4 13 -10 16 -5 3 -10 2 -10 -4z"/>
<path d="M9127 1783 c-4 -3 -7 -11 -7 -17 0 -6 5 -5 12 2 6 6 9 14 7 17 -3 3 -9 2 -12 -2z"/>
<path d="M2680 1729 c0 -24 23 -21 28 4 2 10 -3 17 -12 17 -10 0 -16 -9 -16 -21z"/>
<path d="M10092 1733 c5 -25 28 -28 28 -4 0 12 -6 21 -16 21 -9 0 -14 -7 -12 -17z"/>
</g>
</svg>